<svg width="41" height="16" viewBox="0 0 41 16" fill="none" xmlns="http://www.w3.org/2000/svg">
<path d="M6.53461 15.38C6.72128 13.58 6.81461 12.1533 6.81461 11.1C6.81461 9.00667 6.42128 7.96 5.63461 7.96C5.04794 7.96 4.43461 8.44667 3.79461 9.42C3.16794 10.3933 2.64794 11.7667 2.23461 13.54H2.21461C2.14794 13.8733 2.02128 14.4533 1.83461 15.28C1.75461 15.3733 1.62128 15.4533 1.43461 15.52C1.26128 15.5867 1.11461 15.62 0.994609 15.62C0.887943 15.62 0.834609 15.5867 0.834609 15.52C1.43461 12.7333 1.73461 10.0733 1.73461 7.54C1.73461 4.99333 1.47461 2.84 0.954609 1.08L1.45461 0.76L3.05461 1.52C3.18794 2.41333 3.25461 3.48 3.25461 4.72C3.25461 5.94667 3.14794 7.4 2.93461 9.08C3.49461 8.01333 4.10794 7.16 4.77461 6.52C5.45461 5.88 6.09461 5.56 6.69461 5.56C7.76128 5.56 8.29461 6.31333 8.29461 7.82C8.29461 9.06 8.18128 10.5 7.95461 12.14C7.72794 13.7667 7.59461 14.7733 7.55461 15.16C7.36794 15.3467 7.07461 15.44 6.67461 15.44C6.58128 15.44 6.53461 15.42 6.53461 15.38Z" fill="#FF822A"/>
<path d="M12.8574 6.08C12.8841 6.48 12.8974 6.89333 12.8974 7.32C12.8974 9.64 12.4908 12.1933 11.6774 14.98C11.4908 15.1667 11.2374 15.26 10.9174 15.26C10.8508 15.26 10.8041 15.2533 10.7774 15.24C10.7641 15.2267 10.7641 15.2067 10.7774 15.18C11.0974 13.2733 11.2574 11.52 11.2574 9.92C11.2574 8.32 11.0908 6.88 10.7574 5.6L11.2374 5.3L12.8574 6.08ZM12.0374 4.1C11.7041 4.1 11.4441 3.98667 11.2574 3.76C11.0841 3.53333 10.9974 3.24667 10.9974 2.9C10.9974 2.55333 11.1508 2.25333 11.4574 2C11.7641 1.73333 12.2108 1.56 12.7974 1.48C13.1974 1.81333 13.3974 2.21333 13.3974 2.68C13.3974 3.13333 13.2574 3.48667 12.9774 3.74C12.6974 3.98 12.3841 4.1 12.0374 4.1Z" fill="#8D90B6"/>
<path d="M22.3263 5.9L21.8063 8.02C21.5797 7.96667 21.3463 7.94 21.1063 7.94C20.3463 7.94 19.5997 8.27333 18.8663 8.94C19.253 10.0067 19.7863 11.1667 20.4663 12.42C21.1597 13.66 21.8397 14.6467 22.5063 15.38V15.4C22.5063 15.5467 22.2863 15.62 21.8463 15.62C21.7263 15.62 21.6463 15.6133 21.6063 15.6C20.8863 14.9867 20.133 14.16 19.3463 13.12C18.5597 12.0667 17.993 11.2 17.6463 10.52L17.6263 10.5C17.0663 11.46 16.6997 12.4733 16.5263 13.54L16.4463 13.62L16.1263 15.04C16.0463 15.1333 15.913 15.2133 15.7263 15.28C15.553 15.3467 15.4197 15.38 15.3263 15.38C15.233 15.38 15.1863 15.3467 15.1863 15.28C15.7463 12.6667 16.0263 10.0867 16.0263 7.54C16.0263 4.99333 15.7663 2.84 15.2463 1.08L15.7463 0.76L17.3463 1.52C17.4797 2.52 17.5463 3.68 17.5463 5C17.5463 6.30667 17.3863 8.02 17.0663 10.14C18.2797 7.67333 19.8597 6.13333 21.8063 5.52L22.3263 5.9ZM31.3302 5.9L30.8102 8.02C30.5836 7.96667 30.3502 7.94 30.1102 7.94C29.3502 7.94 28.6036 8.27333 27.8702 8.94C28.2569 10.0067 28.7902 11.1667 29.4702 12.42C30.1636 13.66 30.8436 14.6467 31.5102 15.38V15.4C31.5102 15.5467 31.2902 15.62 30.8502 15.62C30.7302 15.62 30.6502 15.6133 30.6102 15.6C29.8902 14.9867 29.1369 14.16 28.3502 13.12C27.5636 12.0667 26.9969 11.2 26.6502 10.52L26.6302 10.5C26.0702 11.46 25.7036 12.4733 25.5302 13.54L25.4502 13.62L25.1302 15.04C25.0502 15.1333 24.9169 15.2133 24.7302 15.28C24.5569 15.3467 24.4236 15.38 24.3302 15.38C24.2369 15.38 24.1902 15.3467 24.1902 15.28C24.7502 12.6667 25.0302 10.0867 25.0302 7.54C25.0302 4.99333 24.7702 2.84 24.2502 1.08L24.7502 0.76L26.3502 1.52C26.4836 2.52 26.5502 3.68 26.5502 5C26.5502 6.30667 26.3902 8.02 26.0702 10.14C27.2836 7.67333 28.8636 6.13333 30.8102 5.52L31.3302 5.9Z" fill="#FE4352"/>
<path d="M40.3941 5.86L39.4341 6.96C40.1808 7.86667 40.5541 9.00667 40.5541 10.38C40.5541 12.3133 39.9341 13.8 38.6941 14.84C38.0408 15.3867 37.2341 15.66 36.2741 15.66C35.3275 15.66 34.5141 15.28 33.8341 14.52C33.1675 13.76 32.8341 12.7133 32.8341 11.38C32.8341 9.98 33.3541 8.70667 34.3941 7.56C34.9408 6.96 35.7075 6.46 36.6941 6.06C37.6941 5.66 38.8541 5.40667 40.1741 5.3L40.3941 5.86ZM36.5741 13.84C37.3875 13.84 38.0608 13.4933 38.5941 12.8C39.1408 12.1067 39.4141 11.3867 39.4141 10.64C39.4141 9.02667 39.0475 7.78 38.3141 6.9C37.2875 7.07333 36.4208 7.53333 35.7141 8.28C35.0075 9.02667 34.6541 9.87333 34.6541 10.82C34.6541 11.7667 34.8208 12.5067 35.1541 13.04C35.5008 13.5733 35.9741 13.84 36.5741 13.84Z" fill="#FCAB8D"/>
</svg>
