<svg width="50" height="25" viewBox="0 0 50 25" fill="none" xmlns="http://www.w3.org/2000/svg">
<g clip-path="url(#clip0_381_7)">
<g filter="url(#filter0_d_381_7)">
<path d="M10.5346 18.38C10.7213 16.58 10.8146 15.1533 10.8146 14.1C10.8146 12.0067 10.4213 10.96 9.63461 10.96C9.04794 10.96 8.43461 11.4467 7.79461 12.42C7.16794 13.3933 6.64794 14.7667 6.23461 16.54H6.21461C6.14794 16.8733 6.02128 17.4533 5.83461 18.28C5.75461 18.3733 5.62128 18.4533 5.43461 18.52C5.26128 18.5867 5.11461 18.62 4.99461 18.62C4.88794 18.62 4.83461 18.5867 4.83461 18.52C5.43461 15.7333 5.73461 13.0733 5.73461 10.54C5.73461 7.99333 5.47461 5.84 4.95461 4.08L5.45461 3.76L7.05461 4.52C7.18794 5.41333 7.25461 6.48 7.25461 7.72C7.25461 8.94667 7.14794 10.4 6.93461 12.08C7.49461 11.0133 8.10794 10.16 8.77461 9.52C9.45461 8.88 10.0946 8.56 10.6946 8.56C11.7613 8.56 12.2946 9.31333 12.2946 10.82C12.2946 12.06 12.1813 13.5 11.9546 15.14C11.7279 16.7667 11.5946 17.7733 11.5546 18.16C11.3679 18.3467 11.0746 18.44 10.6746 18.44C10.5813 18.44 10.5346 18.42 10.5346 18.38Z" fill="#FF822A"/>
<path d="M16.8574 9.08C16.8841 9.48 16.8974 9.89333 16.8974 10.32C16.8974 12.64 16.4908 15.1933 15.6774 17.98C15.4908 18.1667 15.2374 18.26 14.9174 18.26C14.8508 18.26 14.8041 18.2533 14.7774 18.24C14.7641 18.2267 14.7641 18.2067 14.7774 18.18C15.0974 16.2733 15.2574 14.52 15.2574 12.92C15.2574 11.32 15.0908 9.88 14.7574 8.6L15.2374 8.3L16.8574 9.08ZM16.0374 7.1C15.7041 7.1 15.4441 6.98667 15.2574 6.76C15.0841 6.53333 14.9974 6.24667 14.9974 5.9C14.9974 5.55333 15.1508 5.25333 15.4574 5C15.7641 4.73333 16.2108 4.56 16.7974 4.48C17.1974 4.81333 17.3974 5.21333 17.3974 5.68C17.3974 6.13333 17.2574 6.48667 16.9774 6.74C16.6974 6.98 16.3841 7.1 16.0374 7.1Z" fill="#8D90B6"/>
<path d="M26.3263 8.9L25.8063 11.02C25.5797 10.9667 25.3463 10.94 25.1063 10.94C24.3463 10.94 23.5997 11.2733 22.8663 11.94C23.253 13.0067 23.7863 14.1667 24.4663 15.42C25.1597 16.66 25.8397 17.6467 26.5063 18.38V18.4C26.5063 18.5467 26.2863 18.62 25.8463 18.62C25.7263 18.62 25.6463 18.6133 25.6063 18.6C24.8863 17.9867 24.133 17.16 23.3463 16.12C22.5597 15.0667 21.993 14.2 21.6463 13.52L21.6263 13.5C21.0663 14.46 20.6997 15.4733 20.5263 16.54L20.4463 16.62L20.1263 18.04C20.0463 18.1333 19.913 18.2133 19.7263 18.28C19.553 18.3467 19.4197 18.38 19.3263 18.38C19.233 18.38 19.1863 18.3467 19.1863 18.28C19.7463 15.6667 20.0263 13.0867 20.0263 10.54C20.0263 7.99333 19.7663 5.84 19.2463 4.08L19.7463 3.76L21.3463 4.52C21.4797 5.52 21.5463 6.68 21.5463 8C21.5463 9.30667 21.3863 11.02 21.0663 13.14C22.2797 10.6733 23.8597 9.13333 25.8063 8.52L26.3263 8.9ZM35.3302 8.9L34.8102 11.02C34.5836 10.9667 34.3502 10.94 34.1102 10.94C33.3502 10.94 32.6036 11.2733 31.8702 11.94C32.2569 13.0067 32.7902 14.1667 33.4702 15.42C34.1636 16.66 34.8436 17.6467 35.5102 18.38V18.4C35.5102 18.5467 35.2902 18.62 34.8502 18.62C34.7302 18.62 34.6502 18.6133 34.6102 18.6C33.8902 17.9867 33.1369 17.16 32.3502 16.12C31.5636 15.0667 30.9969 14.2 30.6502 13.52L30.6302 13.5C30.0702 14.46 29.7036 15.4733 29.5302 16.54L29.4502 16.62L29.1302 18.04C29.0502 18.1333 28.9169 18.2133 28.7302 18.28C28.5569 18.3467 28.4236 18.38 28.3302 18.38C28.2369 18.38 28.1902 18.3467 28.1902 18.28C28.7502 15.6667 29.0302 13.0867 29.0302 10.54C29.0302 7.99333 28.7702 5.84 28.2502 4.08L28.7502 3.76L30.3502 4.52C30.4836 5.52 30.5502 6.68 30.5502 8C30.5502 9.30667 30.3902 11.02 30.0702 13.14C31.2836 10.6733 32.8636 9.13333 34.8102 8.52L35.3302 8.9Z" fill="#FE4352"/>
<path d="M44.3941 8.86L43.4341 9.96C44.1808 10.8667 44.5541 12.0067 44.5541 13.38C44.5541 15.3133 43.9341 16.8 42.6941 17.84C42.0408 18.3867 41.2341 18.66 40.2741 18.66C39.3275 18.66 38.5141 18.28 37.8341 17.52C37.1675 16.76 36.8341 15.7133 36.8341 14.38C36.8341 12.98 37.3541 11.7067 38.3941 10.56C38.9408 9.96 39.7075 9.46 40.6941 9.06C41.6941 8.66 42.8541 8.40667 44.1741 8.3L44.3941 8.86ZM40.5741 16.84C41.3875 16.84 42.0608 16.4933 42.5941 15.8C43.1408 15.1067 43.4141 14.3867 43.4141 13.64C43.4141 12.0267 43.0475 10.78 42.3141 9.9C41.2875 10.0733 40.4208 10.5333 39.7141 11.28C39.0075 12.0267 38.6541 12.8733 38.6541 13.82C38.6541 14.7667 38.8208 15.5067 39.1541 16.04C39.5008 16.5733 39.9741 16.84 40.5741 16.84Z" fill="#FCAB8D"/>
</g>
</g>
<defs>
<filter id="filter0_d_381_7" x="0.834473" y="3.76001" width="47.7197" height="22.9" filterUnits="userSpaceOnUse" color-interpolation-filters="sRGB">
<feFlood flood-opacity="0" result="BackgroundImageFix"/>
<feColorMatrix in="SourceAlpha" type="matrix" values="0 0 0 0 0 0 0 0 0 0 0 0 0 0 0 0 0 0 127 0" result="hardAlpha"/>
<feOffset dy="4"/>
<feGaussianBlur stdDeviation="2"/>
<feComposite in2="hardAlpha" operator="out"/>
<feColorMatrix type="matrix" values="0 0 0 0 0 0 0 0 0 0 0 0 0 0 0 0 0 0 0.25 0"/>
<feBlend mode="normal" in2="BackgroundImageFix" result="effect1_dropShadow_381_7"/>
<feBlend mode="normal" in="SourceGraphic" in2="effect1_dropShadow_381_7" result="shape"/>
</filter>
<clipPath id="clip0_381_7">
<rect width="50" height="25" fill="white"/>
</clipPath>
</defs>
</svg>
